<svg xmlns="http://www.w3.org/2000/svg" viewBox="0 0 168.2 75.181">
  <defs>
    <style>
      .cls-1 {
        fill: #c9c9c9;
      }

      .cls-2 {
        fill: #ababab;
      }

      .cls-3 {
        fill: #8e8e8e;
      }

      .cls-4 {
        fill: #fff;
      }
    </style>
  </defs>
  <g id="Group_726" data-name="Group 726" transform="translate(-105 -46.478)">
    <g id="Group_5" data-name="Group 5" transform="translate(105 46.478)">
      <path id="Path_5" data-name="Path 5" class="cls-1" d="M36.433,29.752,0,10.422,131.656,0,168,18.617Z"/>
      <path id="Path_6" data-name="Path 6" class="cls-2" d="M36.254,67.2,0,47.865V11.7L36.254,31.03Z" transform="translate(0 -1.278)"/>
      <path id="Path_7" data-name="Path 7" class="cls-3" d="M172.445,20.9,40.7,32.035V68.2l17.192-1.425,1.96,10.689,8.106-11.4,104.488-9Z" transform="translate(-4.445 -2.283)"/>
      <g id="Group_4" data-name="Group 4" transform="translate(45.251 27.08)">
        <path id="Path_8" data-name="Path 8" class="cls-4" d="M50.8,41.613l7.928-.713v1.692l-5.879.534V50.52l4.9-.445v1.692l-4.9.445V61.3l-2.049.178Z" transform="translate(-50.8 -31.547)"/>
        <path id="Path_9" data-name="Path 9" class="cls-4" d="M62.9,40.578l2.049-.178V60.353l-2.049.178Z" transform="translate(-52.122 -31.492)"/>
        <path id="Path_10" data-name="Path 10" class="cls-4" d="M70,39.9l2.049-.178V49.789L77.3,39.278l2.227-.178-4.543,8.73L79.8,58.964l-2.227.178-3.919-9.531L71.96,53v6.681L70,59.855Z" transform="translate(-52.897 -31.35)"/>
        <path id="Path_11" data-name="Path 11" class="cls-4" d="M86.249,58.425,84.2,58.6V38.65l3.83-.356c2.049-.178,3.118.089,4.008,1.069A5.974,5.974,0,0,1,93.2,43.371c0,3.118-.8,4.721-2.761,5.612l3.118,8.73-2.227.178-2.85-8.462-2.227.178Zm1.692-10.6a2.661,2.661,0,0,0,2.494-1.247,5.735,5.735,0,0,0,.713-2.94,4.568,4.568,0,0,0-.8-3.029,2.61,2.61,0,0,0-2.316-.624l-1.782.178V48Z" transform="translate(-54.448 -31.257)"/>
        <path id="Path_12" data-name="Path 12" class="cls-4" d="M100.607,52.656l-.98,4.543-2.227.178,4.988-20.4,1.692-.178,4.988,19.508-2.227.267-.98-4.365Zm2.672-12.738-2.316,10.957,4.632-.445Z" transform="translate(-55.89 -31.099)"/>
        <path id="Path_13" data-name="Path 13" class="cls-4" d="M114.35,50.027c0,2.583.713,3.563,2.316,3.474,1.6-.178,2.316-1.247,2.316-3.474a2.668,2.668,0,0,0-.624-2.138c-.445-.445-.624-.534-2.405-.98-2.94-.713-4.1-2.227-4.1-5.256,0-3.652,1.692-5.79,4.721-6.057,2.138-.178,3.563.534,4.365,2.138a7.443,7.443,0,0,1,.534,3.207l-2.85.267c-.089-2.494-.624-3.3-1.96-3.118-1.247.089-1.871,1.247-1.871,3.118,0,1.692.713,2.494,2.672,3.029s2.405.713,3.029,1.247c.98.8,1.425,2.049,1.425,4.1,0,3.919-1.782,6.057-5.166,6.414-2.227.178-3.83-.534-4.632-2.138a8.2,8.2,0,0,1-.624-3.563Z" transform="translate(-57.43 -30.965)"/>
        <path id="Path_14" data-name="Path 14" class="cls-4" d="M128.918,54.636,125.8,54.9V34.95l4.454-.356c2.316-.178,3.563.089,4.454,1.247.8.98,1.158,2.405,1.158,4.543a8.217,8.217,0,0,1-1.336,5.077c-.891,1.069-2.049,1.514-4.187,1.782l-1.336.089v7.3Zm1.425-10.066c1.871-.178,2.494-1.247,2.494-4.1a5.626,5.626,0,0,0-.624-2.85c-.356-.534-.891-.713-1.871-.624l-1.425.089V44.57Z" transform="translate(-58.992 -30.853)"/>
        <path id="Path_15" data-name="Path 15" class="cls-4" d="M140.987,49.3l-.891,4.187-3.3.267,5.434-20.488L144.817,33l5.434,19.508-3.3.267-.891-4.1Zm2.494-11.758-1.96,9.264,3.919-.356Z" transform="translate(-60.193 -30.684)"/>
        <path id="Path_16" data-name="Path 16" class="cls-4" d="M163.433,45.593a8.77,8.77,0,0,1-.713,3.919,5.39,5.39,0,0,1-4.543,2.761c-1.871.178-3.385-.356-4.187-1.6-.624-.891-.891-2.316-.891-4.632V38.912c0-2.583.356-4.1,1.158-5.166a5.51,5.51,0,0,1,4.008-2.049c2.138-.178,3.652.534,4.454,2.138a8.809,8.809,0,0,1,.624,3.207l-2.85.267c-.178-2.494-.713-3.3-2.227-3.118-1.6.178-2.138,1.247-2.138,4.543v6.681c0,3.3.534,4.276,2.227,4.187,1.6-.178,2.316-1.247,2.316-3.83Z" transform="translate(-61.974 -30.539)"/>
        <path id="Path_17" data-name="Path 17" class="cls-4" d="M167.4,31.2l9.086-.8v2.583l-5.968.534v6.057l5.077-.445v2.494l-5.077.445V48.3l6.057-.534v2.583l-9.175.8Z" transform="translate(-63.536 -30.4)"/>
      </g>
    </g>
    <g id="Group_725" data-name="Group 725" transform="translate(241 106.113)">
      <path id="Path_136" data-name="Path 136" class="cls-3" d="M0,3.275l1.971-.164L4.6,9.846V2.864L6.407,2.7V13.625l-1.889.164L1.807,6.971v7.064L0,14.2Z" transform="translate(0 -0.502)"/>
      <path id="Path_137" data-name="Path 137" class="cls-3" d="M10.2,2.393,15.457,1.9V3.543l-3.286.329V6.829L14.964,6.5V8.143l-2.793.246v3.039l3.368-.329v1.643l-5.339.493V2.393Z" transform="translate(-1.821 -0.359)"/>
      <path id="Path_138" data-name="Path 138" class="cls-3" d="M18.1,1.486l1.971-.164.986,7.393,1.561-7.639L24.179.911,25.739,8.3,26.725.664,28.7.5,26.807,11.589,25,11.754,23.439,4.689,21.879,12l-1.807.164Z" transform="translate(-3.232 -0.109)"/>
      <path id="Path_139" data-name="Path 139" class="cls-3" d="M33.707,7.866c0,1.314.329,1.807,1.15,1.725s1.15-.575,1.15-1.725A1.394,1.394,0,0,0,35.679,6.8c-.246-.246-.329-.246-1.314-.493a2.618,2.618,0,0,1-2.3-2.957c0-2.054.986-3.286,2.793-3.45a2.315,2.315,0,0,1,2.464,1.15,3.545,3.545,0,0,1,.329,1.807l-1.807.164c-.082-1.232-.329-1.643-.986-1.561s-.9.575-.9,1.561c0,.821.329,1.232,1.4,1.479a3.514,3.514,0,0,1,1.725.657,2.611,2.611,0,0,1,.821,2.3c0,2.136-.986,3.368-3.039,3.532a2.422,2.422,0,0,1-2.629-1.232A4.058,4.058,0,0,1,31.9,7.783Z" transform="translate(-5.696 0)"/>
    </g>
  </g>
</svg>
